<mxfile host="app.diagrams.net" agent="Mozilla/5.0 (Windows NT 10.0; Win64; x64) AppleWebKit/537.36 (KHTML, like Gecko) Chrome/137.0.0.0 Safari/537.36 OPR/121.0.0.0" version="28.2.5">
  <diagram name="Page-1" id="3IASaVv0eZtQnb-jiHW-">
    <mxGraphModel dx="1730" dy="1003" grid="1" gridSize="10" guides="1" tooltips="1" connect="1" arrows="1" fold="1" page="1" pageScale="1" pageWidth="827" pageHeight="1169" math="0" shadow="0">
      <root>
        <mxCell id="0" />
        <mxCell id="1" parent="0" />
        <mxCell id="fbOaHJAEHoAnywUEtYhC-1" value="Usuário" style="swimlane;childLayout=stackLayout;horizontal=1;startSize=50;horizontalStack=0;rounded=1;fontSize=14;fontStyle=0;strokeWidth=2;resizeParent=0;resizeLast=1;shadow=0;dashed=0;align=center;arcSize=21;whiteSpace=wrap;html=1;" vertex="1" parent="1">
          <mxGeometry x="80" y="20" width="160" height="120" as="geometry" />
        </mxCell>
        <mxCell id="fbOaHJAEHoAnywUEtYhC-2" value="ID_User&lt;div&gt;Nome&lt;br&gt;Setor&lt;/div&gt;" style="align=left;strokeColor=none;fillColor=none;spacingLeft=4;spacingRight=4;fontSize=12;verticalAlign=top;resizable=0;rotatable=0;part=1;html=1;whiteSpace=wrap;" vertex="1" parent="fbOaHJAEHoAnywUEtYhC-1">
          <mxGeometry y="50" width="160" height="70" as="geometry" />
        </mxCell>
        <mxCell id="fbOaHJAEHoAnywUEtYhC-74" style="edgeStyle=orthogonalEdgeStyle;rounded=0;orthogonalLoop=1;jettySize=auto;html=1;exitX=0.5;exitY=1;exitDx=0;exitDy=0;entryX=0;entryY=0.5;entryDx=0;entryDy=0;" edge="1" parent="1" source="fbOaHJAEHoAnywUEtYhC-3" target="fbOaHJAEHoAnywUEtYhC-72">
          <mxGeometry relative="1" as="geometry" />
        </mxCell>
        <mxCell id="fbOaHJAEHoAnywUEtYhC-3" value="Operador" style="swimlane;childLayout=stackLayout;horizontal=1;startSize=50;horizontalStack=0;rounded=1;fontSize=14;fontStyle=0;strokeWidth=2;resizeParent=0;resizeLast=1;shadow=0;dashed=0;align=center;arcSize=4;whiteSpace=wrap;html=1;" vertex="1" parent="1">
          <mxGeometry x="10" y="150" width="160" height="84" as="geometry" />
        </mxCell>
        <mxCell id="fbOaHJAEHoAnywUEtYhC-4" value="ID_OP&lt;div&gt;SenhaOP&lt;/div&gt;" style="align=left;strokeColor=none;fillColor=none;spacingLeft=4;spacingRight=4;fontSize=12;verticalAlign=top;resizable=0;rotatable=0;part=1;html=1;whiteSpace=wrap;" vertex="1" parent="fbOaHJAEHoAnywUEtYhC-3">
          <mxGeometry y="50" width="160" height="34" as="geometry" />
        </mxCell>
        <mxCell id="fbOaHJAEHoAnywUEtYhC-6" value="Administrador" style="swimlane;childLayout=stackLayout;horizontal=1;startSize=50;horizontalStack=0;rounded=1;fontSize=14;fontStyle=0;strokeWidth=2;resizeParent=0;resizeLast=1;shadow=0;dashed=0;align=center;arcSize=4;whiteSpace=wrap;html=1;" vertex="1" parent="1">
          <mxGeometry x="530" y="60" width="160" height="120" as="geometry" />
        </mxCell>
        <mxCell id="fbOaHJAEHoAnywUEtYhC-7" value="ID_ADM&lt;div&gt;SenhaADM&lt;/div&gt;" style="align=left;strokeColor=none;fillColor=none;spacingLeft=4;spacingRight=4;fontSize=12;verticalAlign=top;resizable=0;rotatable=0;part=1;html=1;whiteSpace=wrap;" vertex="1" parent="fbOaHJAEHoAnywUEtYhC-6">
          <mxGeometry y="50" width="160" height="70" as="geometry" />
        </mxCell>
        <mxCell id="fbOaHJAEHoAnywUEtYhC-9" value="Drone" style="swimlane;childLayout=stackLayout;horizontal=1;startSize=50;horizontalStack=0;rounded=1;fontSize=14;fontStyle=0;strokeWidth=2;resizeParent=0;resizeLast=1;shadow=0;dashed=0;align=center;arcSize=4;whiteSpace=wrap;html=1;" vertex="1" parent="1">
          <mxGeometry x="40" y="340" width="160" height="120" as="geometry" />
        </mxCell>
        <mxCell id="fbOaHJAEHoAnywUEtYhC-10" value="ID_Drone&lt;div&gt;Sensores&lt;/div&gt;&lt;div&gt;Status&lt;/div&gt;" style="align=left;strokeColor=none;fillColor=none;spacingLeft=4;spacingRight=4;fontSize=12;verticalAlign=top;resizable=0;rotatable=0;part=1;html=1;whiteSpace=wrap;" vertex="1" parent="fbOaHJAEHoAnywUEtYhC-9">
          <mxGeometry y="50" width="160" height="70" as="geometry" />
        </mxCell>
        <mxCell id="fbOaHJAEHoAnywUEtYhC-97" value="" style="rhombus;whiteSpace=wrap;html=1;" vertex="1" parent="fbOaHJAEHoAnywUEtYhC-9">
          <mxGeometry y="120" width="160" as="geometry" />
        </mxCell>
        <mxCell id="fbOaHJAEHoAnywUEtYhC-12" value="Sensores" style="swimlane;childLayout=stackLayout;horizontal=1;startSize=50;horizontalStack=0;rounded=1;fontSize=14;fontStyle=0;strokeWidth=2;resizeParent=0;resizeLast=1;shadow=0;dashed=0;align=center;arcSize=4;whiteSpace=wrap;html=1;" vertex="1" parent="1">
          <mxGeometry x="400" y="410" width="160" height="120" as="geometry">
            <mxRectangle x="400" y="410" width="100" height="50" as="alternateBounds" />
          </mxGeometry>
        </mxCell>
        <mxCell id="fbOaHJAEHoAnywUEtYhC-13" value="ValidarSensores" style="align=left;strokeColor=none;fillColor=none;spacingLeft=4;spacingRight=4;fontSize=12;verticalAlign=top;resizable=0;rotatable=0;part=1;html=1;whiteSpace=wrap;" vertex="1" parent="fbOaHJAEHoAnywUEtYhC-12">
          <mxGeometry y="50" width="160" height="70" as="geometry" />
        </mxCell>
        <mxCell id="fbOaHJAEHoAnywUEtYhC-24" value="MissoesdeVoo" style="swimlane;childLayout=stackLayout;horizontal=1;startSize=50;horizontalStack=0;rounded=1;fontSize=14;fontStyle=0;strokeWidth=2;resizeParent=0;resizeLast=1;shadow=0;dashed=0;align=center;arcSize=4;whiteSpace=wrap;html=1;" vertex="1" parent="1">
          <mxGeometry x="40" y="570" width="160" height="120" as="geometry" />
        </mxCell>
        <mxCell id="fbOaHJAEHoAnywUEtYhC-25" value="Data&lt;div&gt;ID_Missao&lt;/div&gt;&lt;div&gt;Area&lt;/div&gt;&lt;div&gt;Drones&lt;/div&gt;" style="align=left;strokeColor=none;fillColor=none;spacingLeft=4;spacingRight=4;fontSize=12;verticalAlign=top;resizable=0;rotatable=0;part=1;html=1;whiteSpace=wrap;" vertex="1" parent="fbOaHJAEHoAnywUEtYhC-24">
          <mxGeometry y="50" width="160" height="70" as="geometry" />
        </mxCell>
        <mxCell id="fbOaHJAEHoAnywUEtYhC-40" value="CadastroArea" style="swimlane;childLayout=stackLayout;horizontal=1;startSize=50;horizontalStack=0;rounded=1;fontSize=14;fontStyle=0;strokeWidth=2;resizeParent=0;resizeLast=1;shadow=0;dashed=0;align=center;arcSize=4;whiteSpace=wrap;html=1;" vertex="1" parent="1">
          <mxGeometry x="364" y="650" width="160" height="120" as="geometry" />
        </mxCell>
        <mxCell id="fbOaHJAEHoAnywUEtYhC-41" value="Localização&lt;div&gt;Tamanho&lt;br&gt;TipoCultivo&lt;/div&gt;" style="align=left;strokeColor=none;fillColor=none;spacingLeft=4;spacingRight=4;fontSize=12;verticalAlign=top;resizable=0;rotatable=0;part=1;html=1;whiteSpace=wrap;" vertex="1" parent="fbOaHJAEHoAnywUEtYhC-40">
          <mxGeometry y="50" width="160" height="70" as="geometry" />
        </mxCell>
        <mxCell id="fbOaHJAEHoAnywUEtYhC-42" value="Dados" style="swimlane;childLayout=stackLayout;horizontal=1;startSize=50;horizontalStack=0;rounded=1;fontSize=14;fontStyle=0;strokeWidth=2;resizeParent=0;resizeLast=1;shadow=0;dashed=0;align=center;arcSize=4;whiteSpace=wrap;html=1;" vertex="1" parent="1">
          <mxGeometry x="40" y="840" width="160" height="120" as="geometry" />
        </mxCell>
        <mxCell id="fbOaHJAEHoAnywUEtYhC-43" value="Imagens&lt;br&gt;DadosSensores" style="align=left;strokeColor=none;fillColor=none;spacingLeft=4;spacingRight=4;fontSize=12;verticalAlign=top;resizable=0;rotatable=0;part=1;html=1;whiteSpace=wrap;" vertex="1" parent="fbOaHJAEHoAnywUEtYhC-42">
          <mxGeometry y="50" width="160" height="70" as="geometry" />
        </mxCell>
        <mxCell id="fbOaHJAEHoAnywUEtYhC-45" value="Relatorio" style="swimlane;childLayout=stackLayout;horizontal=1;startSize=50;horizontalStack=0;rounded=1;fontSize=14;fontStyle=0;strokeWidth=2;resizeParent=0;resizeLast=1;shadow=0;dashed=0;align=center;arcSize=4;whiteSpace=wrap;html=1;" vertex="1" parent="1">
          <mxGeometry x="470" y="820" width="160" height="120" as="geometry" />
        </mxCell>
        <mxCell id="fbOaHJAEHoAnywUEtYhC-46" value="Medicoes&lt;br&gt;QTD_Voo" style="align=left;strokeColor=none;fillColor=none;spacingLeft=4;spacingRight=4;fontSize=12;verticalAlign=top;resizable=0;rotatable=0;part=1;html=1;whiteSpace=wrap;" vertex="1" parent="fbOaHJAEHoAnywUEtYhC-45">
          <mxGeometry y="50" width="160" height="70" as="geometry" />
        </mxCell>
        <mxCell id="fbOaHJAEHoAnywUEtYhC-49" value="1" style="text;html=1;align=center;verticalAlign=middle;whiteSpace=wrap;rounded=0;" vertex="1" parent="1">
          <mxGeometry x="60" y="280" width="60" height="30" as="geometry" />
        </mxCell>
        <mxCell id="fbOaHJAEHoAnywUEtYhC-53" value="N" style="text;html=1;align=center;verticalAlign=middle;whiteSpace=wrap;rounded=0;" vertex="1" parent="1">
          <mxGeometry x="130" y="310" width="60" height="30" as="geometry" />
        </mxCell>
        <mxCell id="fbOaHJAEHoAnywUEtYhC-56" value="N" style="text;html=1;align=center;verticalAlign=middle;whiteSpace=wrap;rounded=0;" vertex="1" parent="1">
          <mxGeometry x="340" y="410" width="60" height="30" as="geometry" />
        </mxCell>
        <mxCell id="fbOaHJAEHoAnywUEtYhC-59" value="1" style="text;html=1;align=center;verticalAlign=middle;whiteSpace=wrap;rounded=0;" vertex="1" parent="1">
          <mxGeometry x="100" y="690" width="60" height="30" as="geometry" />
        </mxCell>
        <mxCell id="fbOaHJAEHoAnywUEtYhC-60" value="N" style="text;html=1;align=center;verticalAlign=middle;whiteSpace=wrap;rounded=0;" vertex="1" parent="1">
          <mxGeometry x="100" y="810" width="60" height="30" as="geometry" />
        </mxCell>
        <mxCell id="fbOaHJAEHoAnywUEtYhC-70" style="edgeStyle=orthogonalEdgeStyle;rounded=0;orthogonalLoop=1;jettySize=auto;html=1;exitX=0.5;exitY=1;exitDx=0;exitDy=0;" edge="1" parent="1" source="fbOaHJAEHoAnywUEtYhC-61" target="fbOaHJAEHoAnywUEtYhC-3">
          <mxGeometry relative="1" as="geometry" />
        </mxCell>
        <mxCell id="fbOaHJAEHoAnywUEtYhC-71" style="edgeStyle=orthogonalEdgeStyle;rounded=0;orthogonalLoop=1;jettySize=auto;html=1;exitX=1;exitY=0.5;exitDx=0;exitDy=0;" edge="1" parent="1" source="fbOaHJAEHoAnywUEtYhC-61" target="fbOaHJAEHoAnywUEtYhC-6">
          <mxGeometry relative="1" as="geometry" />
        </mxCell>
        <mxCell id="fbOaHJAEHoAnywUEtYhC-61" value="Loga como" style="rhombus;whiteSpace=wrap;html=1;" vertex="1" parent="1">
          <mxGeometry x="360" y="80" width="80" height="80" as="geometry" />
        </mxCell>
        <mxCell id="fbOaHJAEHoAnywUEtYhC-62" style="edgeStyle=orthogonalEdgeStyle;rounded=0;orthogonalLoop=1;jettySize=auto;html=1;exitX=1;exitY=0.25;exitDx=0;exitDy=0;" edge="1" parent="1" source="fbOaHJAEHoAnywUEtYhC-2" target="fbOaHJAEHoAnywUEtYhC-61">
          <mxGeometry relative="1" as="geometry" />
        </mxCell>
        <mxCell id="fbOaHJAEHoAnywUEtYhC-75" style="edgeStyle=orthogonalEdgeStyle;rounded=0;orthogonalLoop=1;jettySize=auto;html=1;exitX=0.5;exitY=1;exitDx=0;exitDy=0;" edge="1" parent="1" source="fbOaHJAEHoAnywUEtYhC-72" target="fbOaHJAEHoAnywUEtYhC-9">
          <mxGeometry relative="1" as="geometry" />
        </mxCell>
        <mxCell id="fbOaHJAEHoAnywUEtYhC-72" value="Controla" style="rhombus;whiteSpace=wrap;html=1;" vertex="1" parent="1">
          <mxGeometry x="310" y="210" width="80" height="80" as="geometry" />
        </mxCell>
        <mxCell id="fbOaHJAEHoAnywUEtYhC-83" style="edgeStyle=orthogonalEdgeStyle;rounded=0;orthogonalLoop=1;jettySize=auto;html=1;exitX=0.5;exitY=1;exitDx=0;exitDy=0;" edge="1" parent="1" source="fbOaHJAEHoAnywUEtYhC-81" target="fbOaHJAEHoAnywUEtYhC-42">
          <mxGeometry relative="1" as="geometry" />
        </mxCell>
        <mxCell id="fbOaHJAEHoAnywUEtYhC-81" value="Coleta" style="rhombus;whiteSpace=wrap;html=1;" vertex="1" parent="1">
          <mxGeometry x="80" y="720" width="80" height="80" as="geometry" />
        </mxCell>
        <mxCell id="fbOaHJAEHoAnywUEtYhC-85" style="edgeStyle=orthogonalEdgeStyle;rounded=0;orthogonalLoop=1;jettySize=auto;html=1;exitX=0.5;exitY=1;exitDx=0;exitDy=0;" edge="1" parent="1" source="fbOaHJAEHoAnywUEtYhC-25" target="fbOaHJAEHoAnywUEtYhC-81">
          <mxGeometry relative="1" as="geometry" />
        </mxCell>
        <mxCell id="fbOaHJAEHoAnywUEtYhC-88" style="edgeStyle=orthogonalEdgeStyle;rounded=0;orthogonalLoop=1;jettySize=auto;html=1;exitX=1;exitY=0.5;exitDx=0;exitDy=0;" edge="1" parent="1" source="fbOaHJAEHoAnywUEtYhC-86" target="fbOaHJAEHoAnywUEtYhC-45">
          <mxGeometry relative="1" as="geometry" />
        </mxCell>
        <mxCell id="fbOaHJAEHoAnywUEtYhC-86" value="Gera" style="rhombus;whiteSpace=wrap;html=1;" vertex="1" parent="1">
          <mxGeometry x="300" y="840" width="80" height="80" as="geometry" />
        </mxCell>
        <mxCell id="fbOaHJAEHoAnywUEtYhC-87" style="edgeStyle=orthogonalEdgeStyle;rounded=0;orthogonalLoop=1;jettySize=auto;html=1;exitX=1;exitY=0.25;exitDx=0;exitDy=0;" edge="1" parent="1" source="fbOaHJAEHoAnywUEtYhC-43" target="fbOaHJAEHoAnywUEtYhC-86">
          <mxGeometry relative="1" as="geometry" />
        </mxCell>
        <mxCell id="fbOaHJAEHoAnywUEtYhC-90" value="N" style="text;html=1;align=center;verticalAlign=middle;whiteSpace=wrap;rounded=0;" vertex="1" parent="1">
          <mxGeometry x="190" y="910" width="60" height="30" as="geometry" />
        </mxCell>
        <mxCell id="fbOaHJAEHoAnywUEtYhC-91" value="1" style="text;html=1;align=center;verticalAlign=middle;whiteSpace=wrap;rounded=0;" vertex="1" parent="1">
          <mxGeometry x="414" y="850" width="60" height="30" as="geometry" />
        </mxCell>
        <mxCell id="fbOaHJAEHoAnywUEtYhC-93" style="edgeStyle=orthogonalEdgeStyle;rounded=0;orthogonalLoop=1;jettySize=auto;html=1;exitX=1;exitY=0.5;exitDx=0;exitDy=0;" edge="1" parent="1" source="fbOaHJAEHoAnywUEtYhC-92" target="fbOaHJAEHoAnywUEtYhC-40">
          <mxGeometry relative="1" as="geometry" />
        </mxCell>
        <mxCell id="fbOaHJAEHoAnywUEtYhC-92" value="Gera" style="rhombus;whiteSpace=wrap;html=1;" vertex="1" parent="1">
          <mxGeometry x="240" y="670" width="80" height="80" as="geometry" />
        </mxCell>
        <mxCell id="fbOaHJAEHoAnywUEtYhC-94" style="edgeStyle=orthogonalEdgeStyle;rounded=0;orthogonalLoop=1;jettySize=auto;html=1;exitX=1;exitY=0.25;exitDx=0;exitDy=0;" edge="1" parent="1" source="fbOaHJAEHoAnywUEtYhC-25" target="fbOaHJAEHoAnywUEtYhC-92">
          <mxGeometry relative="1" as="geometry" />
        </mxCell>
        <mxCell id="fbOaHJAEHoAnywUEtYhC-95" value="N" style="text;html=1;align=center;verticalAlign=middle;whiteSpace=wrap;rounded=0;" vertex="1" parent="1">
          <mxGeometry x="210" y="600" width="60" height="30" as="geometry" />
        </mxCell>
        <mxCell id="fbOaHJAEHoAnywUEtYhC-96" value="1" style="text;html=1;align=center;verticalAlign=middle;whiteSpace=wrap;rounded=0;" vertex="1" parent="1">
          <mxGeometry x="310" y="680" width="60" height="30" as="geometry" />
        </mxCell>
        <mxCell id="fbOaHJAEHoAnywUEtYhC-101" style="edgeStyle=orthogonalEdgeStyle;rounded=0;orthogonalLoop=1;jettySize=auto;html=1;exitX=1;exitY=0.5;exitDx=0;exitDy=0;" edge="1" parent="1" source="fbOaHJAEHoAnywUEtYhC-99" target="fbOaHJAEHoAnywUEtYhC-12">
          <mxGeometry relative="1" as="geometry" />
        </mxCell>
        <mxCell id="fbOaHJAEHoAnywUEtYhC-99" value="Possui" style="rhombus;whiteSpace=wrap;html=1;" vertex="1" parent="1">
          <mxGeometry x="260" y="400" width="80" height="80" as="geometry" />
        </mxCell>
        <mxCell id="fbOaHJAEHoAnywUEtYhC-100" style="edgeStyle=orthogonalEdgeStyle;rounded=0;orthogonalLoop=1;jettySize=auto;html=1;exitX=1;exitY=0;exitDx=0;exitDy=0;entryX=0;entryY=0.5;entryDx=0;entryDy=0;" edge="1" parent="1" source="fbOaHJAEHoAnywUEtYhC-10" target="fbOaHJAEHoAnywUEtYhC-99">
          <mxGeometry relative="1" as="geometry" />
        </mxCell>
        <mxCell id="fbOaHJAEHoAnywUEtYhC-102" value="1" style="text;html=1;align=center;verticalAlign=middle;whiteSpace=wrap;rounded=0;" vertex="1" parent="1">
          <mxGeometry x="220" y="400" width="60" height="30" as="geometry" />
        </mxCell>
        <mxCell id="fbOaHJAEHoAnywUEtYhC-105" style="edgeStyle=orthogonalEdgeStyle;rounded=0;orthogonalLoop=1;jettySize=auto;html=1;exitX=0.5;exitY=1;exitDx=0;exitDy=0;" edge="1" parent="1" source="fbOaHJAEHoAnywUEtYhC-103" target="fbOaHJAEHoAnywUEtYhC-24">
          <mxGeometry relative="1" as="geometry" />
        </mxCell>
        <mxCell id="fbOaHJAEHoAnywUEtYhC-103" value="Recebe" style="rhombus;whiteSpace=wrap;html=1;" vertex="1" parent="1">
          <mxGeometry x="80" y="470" width="80" height="80" as="geometry" />
        </mxCell>
        <mxCell id="fbOaHJAEHoAnywUEtYhC-104" style="edgeStyle=orthogonalEdgeStyle;rounded=0;orthogonalLoop=1;jettySize=auto;html=1;exitX=0.5;exitY=1;exitDx=0;exitDy=0;entryX=0.5;entryY=0;entryDx=0;entryDy=0;" edge="1" parent="1" source="fbOaHJAEHoAnywUEtYhC-10" target="fbOaHJAEHoAnywUEtYhC-103">
          <mxGeometry relative="1" as="geometry" />
        </mxCell>
        <mxCell id="fbOaHJAEHoAnywUEtYhC-106" value="1" style="text;html=1;align=center;verticalAlign=middle;whiteSpace=wrap;rounded=0;" vertex="1" parent="1">
          <mxGeometry x="120" y="460" width="60" height="30" as="geometry" />
        </mxCell>
        <mxCell id="fbOaHJAEHoAnywUEtYhC-107" value="N" style="text;html=1;align=center;verticalAlign=middle;whiteSpace=wrap;rounded=0;" vertex="1" parent="1">
          <mxGeometry x="120" y="540" width="60" height="30" as="geometry" />
        </mxCell>
      </root>
    </mxGraphModel>
  </diagram>
</mxfile>
